<svg xmlns="http://www.w3.org/2000/svg" xmlns:xlink="http://www.w3.org/1999/xlink" contentStyleType="text/css" data-diagram-type="DESCRIPTION" height="726px" preserveAspectRatio="none" style="width:1014px;height:726px;background:#FFFFFF;" version="1.1" viewBox="0 0 1014 726" width="1014px" zoomAndPan="magnify"><?plantuml 1.2026.7beta1?><defs/><g><g class="title" data-source-line="1"><text fill="#000000" font-family="sans-serif" font-size="14" font-weight="700" lengthAdjust="spacing" textLength="469.8545" x="268.9524" y="22.9951">MLOps Emotion-Classification Pipeline &#8212; High-Level Design</text></g><!--cluster gh--><g class="cluster" data-qualified-name="gh" data-source-line="8" id="ent0002"><path d="M29.3952,211.9031 C35.6078,201.9614 42.5648,199.9342 50.0278,210.6545 C56.0869,200.9905 62.3752,199.2416 69.5982,209.5118 C75.4741,200.3712 83.6926,197.7357 90.3891,208.6615 C96.7893,197.249 105.6887,194.8258 113.6618,207.1172 C118.9596,196.5045 129.7693,197.9074 135.3849,206.7625 C142.05,196.9326 148.3179,195.5936 155.3551,206.4024 C163.8648,196.5867 172.1092,197.1115 177.0473,209.8391 C181.6468,201.0703 190.1852,201.9562 194.6137,210.0177 C203.9703,199.9223 212.2078,199.5624 218.5406,213.0815 C228.1004,202.5457 238.6901,203.9597 243.535,217.8969 C245.3273,218.5514 245.4794,219.6374 244.3743,221.0606 C255.4118,226.9445 254.9042,235.3593 244.725,241.6055 C254.4144,245.8659 255.7826,252.2876 247.7374,259.5287 C257.3598,264.1308 259.4736,273.7181 249.9828,280.3786 C257.3549,287.3048 259.0857,294.2865 248.1424,299.4448 C260.8333,303.2435 261.5202,314.1839 251.8717,321.7222 C259.7709,327.9928 259.3482,337.0724 249.6027,341.2978 C260.7376,345.49 259.4525,353.3859 252.7024,360.4698 C263.425,367.0824 262.2814,375.927 252.4417,382.2939 C262.712,390.3683 259.6626,398.3218 249.7832,403.919 C257.9699,409.7169 259.4097,415.5203 251.1773,422.547 C260.2791,430.4601 258.1818,437.5871 247.423,441.5833 C257.5821,447.5962 258.2144,458.9289 246.6791,464.2293 C256.9854,469.8388 255.8399,476.8474 247.0707,482.8579 C256.1143,496.2142 254.3666,506.579 236.535,509.1769 C238.4248,508.3928 239.8085,508.8446 239.9541,511.1237 C234.7587,524.1104 222.8178,524.6316 215.5423,513.2035 C211.5204,522.8311 202.4966,524.2062 195.8866,516.0669 C191.5645,527.0563 182.5651,527.8131 175.87,518.3945 C171.6872,530.6561 161.3627,531.5622 154.2835,521.1524 C149.2035,530.728 139.8391,529.3234 134.5105,521.4338 C128.803,531.6392 119.3915,532.7896 113.7288,521.3907 C104.6309,529.6709 96.7277,529.3346 90.5445,517.9536 C82.2663,527.4585 74.9215,523.8065 70.7439,513.7936 C66.0491,522.8803 56.6773,524.6092 50.7301,515.1448 C35.6032,526.2597 22.7093,519.8147 19.535,502.1769 C20.8897,501.5083 21.6427,501.8879 21.9583,503.3556 C13.316,498.5554 10.8419,492.2506 19.5743,485.1725 C9.7486,479.8698 8.3028,468.902 18.2431,462.4418 C7.4128,455.4624 8.9101,446.5492 20.1508,441.589 C10.0551,435.6535 9.6322,428.8329 19.4882,422.215 C9.8656,415.5681 8.1395,408.1236 18.9728,400.9802 C10.1431,395.164 10.9994,389.2287 18.8645,383.3102 C7.5919,378.3902 6,371.2597 15.1169,362.6425 C6.1533,354.7516 6.4891,347.814 17.873,342.741 C7.5309,336.8804 6.1347,326.8901 16.2517,319.5963 C9.4249,313.3814 9.3022,307.7997 17.2862,302.48 C7.9316,295.8418 8.4286,287.1846 18.4527,281.6306 C8.3918,275.9797 7.8344,266.0973 18.6122,260.6044 C8.4296,252.2262 9.0038,245.6457 20.7669,239.5091 C7.8914,226.6929 10.9613,217.9778 26.535,210.8969 C27.6973,209.9468 29.1418,210.2692 29.3952,211.9031" fill="none" style="stroke:#181818;stroke-width:1;"/><text fill="#000000" font-family="sans-serif" font-size="14" font-weight="700" lengthAdjust="spacing" textLength="54.6875" x="104.1912" y="228.892">GitHub</text></g><!--cluster hf--><g class="cluster" data-qualified-name="hf" data-source-line="13" id="ent0005"><path d="M470.3646,207.5483 C476.631,197.4303 485.5132,197.0683 491.6272,207.7044 C496.2615,195.7738 506.3718,195.2912 513.0185,205.7847 C519.9261,194.0805 528.7082,195.5198 535.3705,206.0315 C543.1984,195.7231 550.5527,195.5148 557.5889,206.8444 C565.5314,196.6357 572.8917,195.4723 580.658,207.0311 C586.6432,194.6126 594.1066,194.8085 602.5698,204.5847 C610.4589,193.9154 617.5481,194.9306 624.561,205.4923 C630.4507,193.7729 639.8527,194.0831 646.3583,204.8965 C652.2168,194.9143 659.5484,194.4061 666.1177,204.1859 C673.1772,195.3119 682.641,195.1926 687.489,206.5249 C696.42,195.0766 705.3631,196.4564 712.3136,208.6081 C717.476,197.1578 725.4728,198.2971 732.9186,206.1737 C740.0309,197.2603 748.818,194.8003 755.3849,206.7607 C767.0751,194.5304 777.5467,198.2083 782.535,213.3969 C784.1731,212.3667 785.9614,213.142 786.0074,215.1918 C801.4426,220.9319 800.9907,229.5442 791.5389,240.6844 C806.532,245.1227 806.988,257.3245 796.9503,266.9249 C803.6748,277.1084 800.1019,284.9448 788.8482,288.3202 C798.8773,305.0538 795.8969,315.619 775.535,319.2869 C776.9526,317.6224 778.4844,317.7992 779.188,319.9675 C774.0493,333.4858 762.5327,331.6531 755.1052,322.3867 C749.9829,332.3661 741.5668,334.9167 733.999,324.978 C728.652,336.7619 718.8088,336.7532 710.7261,328.0922 C703.2166,336.6351 694.5939,335.7103 688.9916,325.8409 C684.9693,337.0191 675.8852,340.1504 667.818,329.8235 C661.4384,340.8079 650.9636,341.2667 644.2291,330.2032 C639.7232,339.6894 629.4758,342.6186 623.4028,331.8113 C616.6035,340.5645 610.0096,342.3653 602.3808,332.7613 C594.2501,341.9772 585.6019,343.3042 578.8278,331.2586 C570.8366,340.3361 561.5808,339.6381 556.7633,327.8952 C549.0866,337.3156 538.363,338.1327 532.7568,325.6282 C526.9653,336.8646 517.8898,335.6594 511.2218,326.5561 C503.724,333.3892 497.1419,333.6007 491.9561,323.8674 C475.5227,336.5971 464.2918,332.2471 459.535,312.2869 C461.3306,310.4809 462.8922,311.2099 463.5959,313.3973 C449.2411,307.6583 450.9819,298.0172 460.3242,289.0888 C450.1018,282.3696 449.3616,272.0463 461.4657,266.4529 C448.566,260.2062 449.9254,249.8879 460.0386,242.2824 C443.7865,226.8906 446.2511,215.1746 466.535,206.3969 C468.357,204.845 469.6809,205.3142 470.3646,207.5483" fill="none" style="stroke:#181818;stroke-width:1;"/><text fill="#000000" font-family="sans-serif" font-size="14" font-weight="700" lengthAdjust="spacing" textLength="144.7715" x="548.6492" y="224.392">Hugging Face Hub</text></g><!--cluster kaggle--><g class="cluster" data-qualified-name="kaggle" data-source-line="18" id="ent0008"><polygon fill="none" points="670.535,394.2869,680.535,384.2869,851.535,384.2869,851.535,515.1769,841.535,525.1769,670.535,525.1769,670.535,394.2869" style="stroke:#181818;stroke-width:1;stroke-linejoin:miter;stroke-miterlimit:10;"/><line style="stroke:#181818;stroke-width:1;" x1="841.535" x2="851.535" y1="394.2869" y2="384.2869"/><line style="stroke:#181818;stroke-width:1;" x1="670.535" x2="841.535" y1="394.2869" y2="394.2869"/><line style="stroke:#181818;stroke-width:1;" x1="841.535" x2="841.535" y1="394.2869" y2="525.1769"/><text fill="#000000" font-family="sans-serif" font-size="14" font-weight="700" lengthAdjust="spacing" textLength="105.4238" x="704.3231" y="410.282">Kaggle (GPU)</text></g><!--cluster wandb--><g class="cluster" data-qualified-name="wandb" data-source-line="22" id="ent0010"><path d="M630.4,591.0017 C632.8032,585.0339 637.3895,583.9812 641.8626,588.8028 C645.5839,583.5255 650.4656,583.0727 654.1681,588.8238 C657.4577,581.0618 661.7899,582.1115 667.0337,586.8053 C669.2826,581.0964 672.9896,579.5778 678.0965,583.5342 C681.9366,576.6287 687.0978,577.5021 691.0308,583.4407 C694.6656,578.4204 699.3062,578.5523 702.841,583.5583 C707.7046,578.9785 713.0956,578.7659 715.6872,586.0239 C720.0386,581.2676 724.9263,581.6547 727.5062,587.9231 C731.3869,582.9231 737.5513,583.0486 739.915,589.5585 C748.2496,584.096 757.2312,585.4555 758.535,597.1769 C759.2045,596.9369 759.5919,597.4067 759.4192,598.0347 C764.4848,601.4698 765.101,606.0213 759.0033,609.0343 C764.6974,611.129 766.0205,616.6718 760.6844,620.3983 C766.0903,623.8822 767.8466,628.8518 761.4517,633.0513 C765.7022,635.2502 766.6564,639.511 761.9923,642.2346 C766.9748,645.9946 766.7089,650.4847 761.0688,653.3632 C766.3435,657.7513 765.3677,662.3296 759.3647,665.077 C765.8122,667.7771 766.0681,672.7639 760.4704,676.618 C766.7319,686.3674 763.4132,693.6066 751.535,694.0669 C752.5896,694.2404 752.9592,695.0431 752.3532,695.9415 C748.3978,701.9882 743.6922,702.5121 739.5611,696.1222 C737.5906,701.9276 733.3979,704.257 728.4281,699.1947 C725.414,706.7919 720.4532,708.0666 714.9374,701.5934 C712.3758,706.3045 707.1218,707.4602 704.2828,701.8806 C702.6899,710.2892 696.1814,710.5069 690.8108,705.7447 C685.5809,711.1855 681.8678,710.3591 678.8651,703.5695 C674.1962,709.0788 668.657,707.9322 666.7376,700.9088 C661.4866,706.776 657.4387,705.8084 653.2858,699.6775 C648.5183,703.9347 644.7457,703.1824 642.1862,697.268 C631.1734,703.8929 622.6053,700.5696 621.535,687.0669 C623.045,686.9311 623.6116,687.6262 623.258,689.0831 C616.9501,685.5191 616.671,681.0946 622.0806,676.4394 C616.7786,673.4056 615.7444,669.1734 621.5092,665.5584 C615.3448,662.0295 613.9921,658.4472 620.0311,653.4309 C614.187,650.8501 614.1746,645.9323 619.303,642.6129 C613.8239,639.5129 613.3186,633.9021 619.6795,631.1924 C614.1713,627.032 615.1688,622.2478 621.3431,619.792 C616.3709,616.1401 616.5839,612.8483 620.9692,608.8759 C613.3997,599.9353 617.8696,591.7394 628.535,590.1769 C629.6349,589.4532 630.155,589.7924 630.4,591.0017" fill="none" style="stroke:#181818;stroke-width:1;"/><text fill="#000000" font-family="sans-serif" font-size="14" font-weight="700" lengthAdjust="spacing" textLength="137.7852" x="621.1424" y="608.172">Weights &amp; Biases</text></g><!--cluster registry--><g class="cluster" data-qualified-name="registry" data-source-line="26" id="ent0012"><polygon fill="none" points="294.535,402.2869,304.535,392.2869,518.535,392.2869,518.535,507.1769,508.535,517.1769,294.535,517.1769,294.535,402.2869" style="stroke:#181818;stroke-width:1;stroke-linejoin:miter;stroke-miterlimit:10;"/><line style="stroke:#181818;stroke-width:1;" x1="508.535" x2="518.535" y1="402.2869" y2="392.2869"/><line style="stroke:#181818;stroke-width:1;" x1="294.535" x2="508.535" y1="402.2869" y2="402.2869"/><line style="stroke:#181818;stroke-width:1;" x1="508.535" x2="508.535" y1="402.2869" y2="517.1769"/><text fill="#000000" font-family="sans-serif" font-size="14" font-weight="700" lengthAdjust="spacing" textLength="148.1895" x="328.4402" y="418.282">Container Registry</text></g><!--entity repo--><g class="entity" data-qualified-name="gh.repo" data-source-line="9" id="ent0003"><rect fill="#F1F1F1" height="68.8906" rx="2.5" ry="2.5" style="stroke:#181818;stroke-width:0.5;" width="208.8291" x="27.125" y="237.8969"/><text fill="#000000" font-family="sans-serif" font-size="14" lengthAdjust="spacing" textLength="35.793" x="37.125" y="260.892">Repo</text><text fill="#000000" font-family="sans-serif" font-size="14" lengthAdjust="spacing" textLength="188.8291" x="37.125" y="277.1889">src / Dockerfile / workflows</text><text fill="#000000" font-family="sans-serif" font-size="14" lengthAdjust="spacing" textLength="56.8135" x="37.125" y="293.4857">[Task 1]</text></g><!--entity actions--><g class="entity" data-qualified-name="gh.actions" data-source-line="10" id="ent0004"><rect fill="#F1F1F1" height="68.8906" rx="2.5" ry="2.5" style="stroke:#181818;stroke-width:0.5;" width="146.9844" x="58.045" y="432.2869"/><text fill="#000000" font-family="sans-serif" font-size="14" lengthAdjust="spacing" textLength="104.3506" x="68.045" y="455.282">GitHub Actions</text><text fill="#000000" font-family="sans-serif" font-size="14" lengthAdjust="spacing" textLength="126.9844" x="68.045" y="471.5789">CI lint + inference</text><text fill="#000000" font-family="sans-serif" font-size="14" lengthAdjust="spacing" textLength="56.8135" x="68.045" y="487.8757">[Task 7]</text></g><!--entity dataset--><g class="entity" data-qualified-name="hf.dataset" data-source-line="14" id="ent0006"><path d="M646.505,243.3969 C646.505,233.3969 710.5362,233.3969 710.5362,233.3969 C710.5362,233.3969 774.5675,233.3969 774.5675,243.3969 L774.5675,301.2875 C774.5675,311.2875 710.5362,311.2875 710.5362,311.2875 C710.5362,311.2875 646.505,311.2875 646.505,301.2875 L646.505,243.3969" fill="#F1F1F1" style="stroke:#181818;stroke-width:0.5;"/><path d="M646.505,243.3969 C646.505,253.3969 710.5362,253.3969 710.5362,253.3969 C710.5362,253.3969 774.5675,253.3969 774.5675,243.3969" fill="none" style="stroke:#181818;stroke-width:0.5;"/><text fill="#000000" font-family="sans-serif" font-size="14" lengthAdjust="spacing" textLength="54.8242" x="656.505" y="270.392">Dataset</text><text fill="#000000" font-family="sans-serif" font-size="14" lengthAdjust="spacing" textLength="106.9824" x="656.505" y="286.6889">dair-ai/emotion</text><text fill="#000000" font-family="sans-serif" font-size="14" lengthAdjust="spacing" textLength="108.0625" x="656.505" y="302.9857">[Task 2 source]</text></g><!--entity model--><g class="entity" data-qualified-name="hf.model" data-source-line="15" id="ent0007"><path d="M467.155,243.3969 C467.155,233.3969 539.5397,233.3969 539.5397,233.3969 C539.5397,233.3969 611.9245,233.3969 611.9245,243.3969 L611.9245,301.2875 C611.9245,311.2875 539.5397,311.2875 539.5397,311.2875 C539.5397,311.2875 467.155,311.2875 467.155,301.2875 L467.155,243.3969" fill="#F1F1F1" style="stroke:#181818;stroke-width:0.5;"/><path d="M467.155,243.3969 C467.155,253.3969 539.5397,253.3969 539.5397,253.3969 C539.5397,253.3969 611.9245,253.3969 611.9245,243.3969" fill="none" style="stroke:#181818;stroke-width:0.5;"/><text fill="#000000" font-family="sans-serif" font-size="14" lengthAdjust="spacing" textLength="93.584" x="477.155" y="270.392">Model + card</text><text fill="#000000" font-family="sans-serif" font-size="14" lengthAdjust="spacing" textLength="124.7695" x="477.155" y="286.6889">distilbert-emotion</text><text fill="#000000" font-family="sans-serif" font-size="14" lengthAdjust="spacing" textLength="115.2334" x="477.155" y="302.9857">[Task 5 registry]</text></g><!--entity nb--><g class="entity" data-qualified-name="kaggle.nb" data-source-line="19" id="ent0009"><rect fill="#F1F1F1" height="68.8906" rx="2.5" ry="2.5" style="stroke:#181818;stroke-width:0.5;" width="98.3467" x="694.365" y="432.2869"/><text fill="#000000" font-family="sans-serif" font-size="14" lengthAdjust="spacing" textLength="67.2656" x="704.365" y="455.282">Notebook</text><text fill="#000000" font-family="sans-serif" font-size="14" lengthAdjust="spacing" textLength="78.3467" x="704.365" y="471.5789">prep / train</text><text fill="#000000" font-family="sans-serif" font-size="14" lengthAdjust="spacing" textLength="78.0664" x="704.365" y="487.8757">[Tasks 2-4]</text></g><!--entity wbproj--><g class="entity" data-qualified-name="wandb.wbproj" data-source-line="23" id="ent0011"><rect fill="#F1F1F1" height="68.8906" rx="2.5" ry="2.5" style="stroke:#181818;stroke-width:0.5;" width="107.9512" x="640.555" y="617.1769"/><text fill="#000000" font-family="sans-serif" font-size="14" lengthAdjust="spacing" textLength="48.4531" x="650.555" y="640.172">Project</text><text fill="#000000" font-family="sans-serif" font-size="14" lengthAdjust="spacing" textLength="87.9512" x="650.555" y="656.4689">experiments</text><text fill="#000000" font-family="sans-serif" font-size="14" lengthAdjust="spacing" textLength="81.915" x="650.555" y="672.7657">[Tasks 4, 8]</text></g><!--entity docker--><g class="entity" data-qualified-name="registry.docker" data-source-line="27" id="ent0013"><rect fill="#F1F1F1" height="68.8906" rx="2.5" ry="2.5" style="stroke:#181818;stroke-width:0.5;" width="117.5762" x="347.745" y="432.2869"/><text fill="#000000" font-family="sans-serif" font-size="14" lengthAdjust="spacing" textLength="97.5762" x="357.745" y="455.282">Docker image</text><text fill="#000000" font-family="sans-serif" font-size="14" lengthAdjust="spacing" textLength="65.8574" x="357.745" y="471.5789">inference</text><text fill="#000000" font-family="sans-serif" font-size="14" lengthAdjust="spacing" textLength="56.8135" x="357.745" y="487.8757">[Task 6]</text></g><!--entity team--><g class="entity" data-qualified-name="team" data-source-line="6" id="ent0001"><ellipse cx="131.5332" cy="51.2969" fill="#F1F1F1" rx="8" ry="8" style="stroke:#181818;stroke-width:0.5;"/><path d="M131.5332,59.2969 L131.5332,86.2969 M118.5332,67.2969 L144.5332,67.2969 M131.5332,86.2969 L118.5332,101.2969 M131.5332,86.2969 L144.5332,101.2969" fill="none" style="stroke:#181818;stroke-width:0.5;"/><text fill="#000000" font-family="sans-serif" font-size="14" lengthAdjust="spacing" textLength="42.9297" x="80.315" y="115.792">Group</text><text fill="#000000" font-family="sans-serif" font-size="14" lengthAdjust="spacing" textLength="102.4365" x="80.315" y="132.0889">(collaborators)</text></g><g class="entity" data-qualified-name="GMN22" data-source-line="39" id="ent0023"><path d="M783.315,631.4869 L783.315,671.7525 L999.7593,671.7525 L999.7593,641.4869 L989.7593,631.4869 L783.315,631.4869" fill="#FEFFDD" style="stroke:#181818;stroke-width:0.5;"/><path d="M989.7593,631.4869 L989.7593,641.4869 L999.7593,641.4869 L989.7593,631.4869" fill="#FEFFDD" style="stroke:#181818;stroke-width:1;"/><text fill="#000000" font-family="sans-serif" font-size="13" lengthAdjust="spacing" textLength="172.0151" x="789.315" y="648.5538">secrets via Kaggle Secrets</text><text fill="#000000" font-family="sans-serif" font-size="13" lengthAdjust="spacing" textLength="195.4443" x="789.315" y="663.6866">(HF_TOKEN, WANDB_API_KEY)</text></g><g class="entity" data-qualified-name="GMN25" data-source-line="40" id="ent0026"><path d="M34.805,639.0569 L34.805,664.1897 A0,0 0 0 0 34.805,664.1897 L228.2644,664.1897 A0,0 0 0 0 228.2644,664.1897 L228.2644,649.0569 L218.2644,639.0569 L135.535,639.0569 L131.535,501.2769 L127.535,639.0569 L34.805,639.0569 A0,0 0 0 0 34.805,639.0569" fill="#FEFFDD" style="stroke:#181818;stroke-width:0.5;"/><path d="M218.2644,639.0569 L218.2644,649.0569 L228.2644,649.0569 L218.2644,639.0569" fill="#FEFFDD" style="stroke:#181818;stroke-width:0.5;"/><text fill="#000000" font-family="sans-serif" font-size="13" lengthAdjust="spacing" textLength="172.4595" x="40.805" y="656.1238">secrets via GitHub Secrets</text></g><!--link team to repo--><g class="link" data-entity-1="ent0001" data-entity-2="ent0003" data-link-type="dependency" data-source-line="30" id="lnk14"><path d="M131.535,135.8369 C131.535,167.5069 131.535,203.9569 131.535,232.6369" fill="none" id="team-to-repo" style="stroke:#181818;stroke-width:1;"/><polygon fill="#181818" points="131.535,237.6369,135.535,228.6369,131.535,232.6369,127.535,228.6369,131.535,237.6369" style="stroke:#181818;stroke-width:1;stroke-linejoin:miter;stroke-miterlimit:10;"/><text fill="#000000" font-family="sans-serif" font-size="13" lengthAdjust="spacing" textLength="66.9868" x="132.535" y="178.4638">push code</text></g><!--link dataset to nb--><g class="link" data-entity-1="ent0006" data-entity-2="ent0009" data-link-type="dependency" data-source-line="31" id="lnk15"><path d="M752.225,311.4469 C760.115,320.9969 767.235,331.8169 771.535,343.2869 C782.445,372.3869 774.5279,402.4456 763.5979,427.4456" fill="none" id="dataset-to-nb" style="stroke:#181818;stroke-width:1;"/><polygon fill="#181818" points="761.595,432.0269,768.8653,425.3829,763.5979,427.4456,761.5352,422.1782,761.595,432.0269" style="stroke:#181818;stroke-width:1;stroke-linejoin:miter;stroke-miterlimit:10;"/><text fill="#000000" font-family="sans-serif" font-size="13" lengthAdjust="spacing" textLength="93.5771" x="775.535" y="356.3538">load_dataset()</text></g><!--link nb to wbproj--><g class="link" data-entity-1="ent0009" data-entity-2="ent0011" data-link-type="dependency" data-source-line="32" id="lnk16"><path d="M731.995,501.6169 C727.235,516.1669 721.825,533.4269 717.535,549.1769 C711.415,571.6569 706.6594,592.3472 702.4194,612.1972" fill="none" id="nb-to-wbproj" style="stroke:#181818;stroke-width:1;"/><polygon fill="#181818" points="701.375,617.0869,707.1667,609.121,702.4194,612.1972,699.3432,607.4499,701.375,617.0869" style="stroke:#181818;stroke-width:1;stroke-linejoin:miter;stroke-miterlimit:10;"/><text fill="#000000" font-family="sans-serif" font-size="13" lengthAdjust="spacing" textLength="138.7407" x="718.535" y="562.2438">log metrics + system</text></g><!--link nb to model--><g class="link" data-entity-1="ent0009" data-entity-2="ent0007" data-link-type="dependency" data-source-line="33" id="lnk17"><path d="M708.025,431.8669 C682.155,407.2369 646.245,373.1169 614.535,343.2869 C603.645,333.0369 595.4817,325.3969 584.5117,315.1669" fill="none" id="nb-to-model" style="stroke:#181818;stroke-width:1;"/><polygon fill="#181818" points="580.855,311.7569,584.709,320.8203,584.5117,315.1669,590.1651,314.9696,580.855,311.7569" style="stroke:#181818;stroke-width:1;stroke-linejoin:miter;stroke-miterlimit:10;"/><text fill="#000000" font-family="sans-serif" font-size="13" lengthAdjust="spacing" textLength="92.4282" x="632.535" y="356.3538">push_to_hub()</text></g><!--link repo to actions--><g class="link" data-entity-1="ent0003" data-entity-2="ent0004" data-link-type="dependency" data-source-line="34" id="lnk18"><path d="M108.785,307.1469 C102.585,318.1969 96.705,330.8269 93.535,343.2869 C85.835,373.5969 95.7481,403.0705 108.3181,427.5105" fill="none" id="repo-to-actions" style="stroke:#181818;stroke-width:1;"/><polygon fill="#181818" points="110.605,431.9569,110.0457,422.1239,108.3181,427.5105,102.9315,425.7829,110.605,431.9569" style="stroke:#181818;stroke-width:1;stroke-linejoin:miter;stroke-miterlimit:10;"/><text fill="#000000" font-family="sans-serif" font-size="13" lengthAdjust="spacing" textLength="50.6733" x="94.535" y="356.3538">triggers</text></g><!--link model to docker--><g class="link" data-entity-1="ent0007" data-entity-2="ent0013" data-link-type="dependency" data-source-line="35" id="lnk19"><path d="M524.885,311.4069 C518.135,327.0869 509.415,345.1069 499.535,360.2869 C482.625,386.2669 463.061,408.8036 444.151,428.5736" fill="none" id="model-to-docker" style="stroke:#181818;stroke-width:1;"/><polygon fill="#181818" points="440.695,432.1869,449.8065,428.4479,444.151,428.5736,444.0253,422.9182,440.695,432.1869" style="stroke:#181818;stroke-width:1;stroke-linejoin:miter;stroke-miterlimit:10;"/><text fill="#000000" font-family="sans-serif" font-size="13" lengthAdjust="spacing" textLength="96.1606" x="509.535" y="356.3538">pull (build/run)</text></g><!--link model to actions--><g class="link" data-entity-1="ent0007" data-entity-2="ent0004" data-link-type="dependency" data-source-line="36" id="lnk20"><path d="M466.855,303.4769 C439.015,315.4069 407.085,329.5269 378.535,343.2869 C364.025,350.2769 360.875,352.9569 346.535,360.2869 C298.585,384.7669 248.6348,409.287 206.5248,429.687" fill="none" id="model-to-actions" style="stroke:#181818;stroke-width:1;"/><polygon fill="#181818" points="202.025,431.8669,211.8685,431.5429,206.5248,429.687,208.3807,424.3432,202.025,431.8669" style="stroke:#181818;stroke-width:1;stroke-linejoin:miter;stroke-miterlimit:10;"/><text fill="#000000" font-family="sans-serif" font-size="13" lengthAdjust="spacing" textLength="111.0078" x="379.535" y="356.3538">pull for inference</text></g><!--link repo to docker--><g class="link" data-entity-1="ent0003" data-entity-2="ent0013" data-link-type="dependency" data-source-line="37" id="lnk21"><path d="M143.955,307.2069 C152.645,325.9769 166.205,347.9569 185.535,360.2869 C210.445,376.1769 223.685,358.4069 251.535,368.2869 C292.725,382.8969 330.3582,406.963 360.0982,428.853" fill="none" id="repo-to-docker" style="stroke:#181818;stroke-width:1;stroke-dasharray:7,7;"/><polygon fill="#181818" points="364.125,431.8169,359.2478,423.2604,360.0982,428.853,354.5056,429.7033,364.125,431.8169" style="stroke:#181818;stroke-width:1;stroke-linejoin:miter;stroke-miterlimit:10;"/><text fill="#000000" font-family="sans-serif" font-size="13" lengthAdjust="spacing" textLength="155.2383" x="186.535" y="356.3538">Dockerfile build context</text></g><!--link kaggle to GMN22--><g class="link" data-entity-1="ent0008" data-entity-2="ent0023" data-link-type="association" data-source-line="39" id="lnk24"><path d="M851.5895,498.4272 C852.4933,501.8704 853.4522,505.5233 854.455,509.3433 C856.4604,516.9834 858.6412,525.2916 860.9075,533.9256 C869.9725,568.4619 880.405,608.2119 886.455,631.2669" fill="none" id="kaggle-GMN22" style="stroke:#181818;stroke-width:1;stroke-dasharray:7,7;"/></g><?plantuml-src PPFRJjj048Rl_HIZN5I9YecAw45SL082176AW0fLJHMDrsDdc_MkjRiceAfI7w9Fs2VfUDSX8RspP_xvvhXUUaLmTNbJEpYfZ9T6fySAdPE55DZ-maJMfAGc-Flx3unbEKylwP4KZCZ9KYU9MqXTeyKAXAbgeqdxE__CL4l2eouLRKZS77EpbBg40fMZ947XZONUcJLDFTLzOPJ2p5Xagnlq01rumYf9X39DpZhfnqqMxEKSVYQmJWgzMwhDL3ihO0WZ8nPa2ybr365fxA9GPkcc-jizkWMy-nuGbWDU8o8V3aNREikFpu5xz_0Mf2x8aXQqOdoC38pIvDTBZUEcBDiEJr4GhAgT5w7Q73rcw0Xw8_vovASwHsbJb4EAur_Xzy2PnWgAMVAeVaMuCZcluIq8j3bZfFDIPMHzkaLwptsMxBNFaLMrSMszcZ-WTu4bxmZwPvClSU2BQDWQxhNnb1cpcEgQnyP3zHRbAeU3lNG_qdMsCOe7udln3jx0aUIQNL0iKUVPDdvYpG--bwccfvgihDZeNk3xE_0fqfTPpS9ryST6Uow3BDnsFNQBZJ_RMU9LWAomv3t-jz8FtR23gatItXwawUTmAN00TUFcpCifwHOId3fZbpAOppfhVv2mhNN5UeExX8gybSBnojopyrIjH64X7NtcpMpUP4m8ALjtTs4iuF2o9EkI6D4wOwqXM2dePurK-T0sUh2XMGE2gE07zz9wJBExkq7QU3e1nmrhJq--dRbdc_7UL62ArQ4SW2DXYTVyA16wSxgB9dxIuzFP_St5oVKEF1nUZuvcXvFpsSN9ry4sRLtb9gvxa1tk7m00?></g></svg>